Patient4_TMGait_0pt5_01_left_31_EMG.mot
version=1
nRows=23
nColumns=33
inDegrees=no
endheader
time	1LAddLong	2LGlutMax	3LGlutMed	4LIliopsoas	5LSemiMemb	6LBicFemLong	7LRecFem	8LVastMed	9LVastLat	10LGasMed	11LTibAnt	12lTibPost	13LPeroneusLong	14LSol	15LExtDigLong	16LFlexDigLong	17RAddLong	18RGlutMax	19RGlutMed	20RIliopsoas	21RSemiMemb	22RBicFemLong	23RRecFem	24RVastMed	25RVastLat	26RGasMed	27RTibAnt	28RTibPost	29RPeroneusLong	30RSol	31RExtDigLong	32RFlexDigLong
41.38	0.014801	0.27039	-0.053558	-0.005188	0.015106	0.022888	0.24139	0.017853	-0.048828	0.007935	-0.16419	0.000763	0.092468	0.023956	-0.089417	-0.010529	-0.020599	-0.12177	-0.056763	0.056305	0.006409	-0.016785	-0.13321	0.15457	0.27084	-0.016632	0.49316	-0.00473	-0.44968	0.015259	-0.00412	-0.002747
41.381	0.006256	0.28473	-0.048065	0.016022	0.020905	0.020599	0.24002	0.0177	-0.018921	0.002136	-0.072174	0.006104	0.044098	0.019684	0.068054	-0.007629	0.003815	-0.097351	-0.22873	0.038147	0.000153	-0.040894	-0.044708	0.075226	0.21576	-0.012207	0.67963	-0.007629	-2.0441	-0.17075	-0.007782	0.001068
41.382	0.009308	0.25757	-0.0354	0.024719	0.021057	0.023041	0.24139	0.015106	0.016632	-0.003967	-0.016327	0.003204	0.03067	0.021515	0.043945	0.001984	-0.000305	-0.037079	0.20111	0.048523	0.008087	-0.025482	-0.012665	0.044861	0.11749	0.000763	0.27954	-0.007324	-1.1121	-0.1648	-0.004883	0.003815
41.383	0.007782	0.19913	-0.048676	0.015106	0.015411	0.02182	0.22446	0.018616	0.045319	0.007629	-0.089569	0.00824	0.046539	0.042725	0.37247	-0.005035	-0.014038	-0.081024	0.20981	0.040436	0.005493	0.028534	-0.069885	-0.059204	-0.069275	-0.011292	0.074463	-0.007629	1.0234	0.159	-0.000153	0.006256
41.384	0.018158	0.21133	-0.034637	0.014801	0.014191	0.003357	0.20584	0.017853	0.068512	0.007172	-0.016174	0.003204	0.041199	0.019226	0.84549	-0.004272	-0.007629	-0.023041	-0.34347	0.020294	-0.003052	0.002136	-0.11963	0.003662	-0.11429	-0.01297	-0.20737	-0.007629	1.2653	0.20355	-0.003204	0.005798
41.385	-0.000305	0.18799	-0.042572	0.008698	0.013885	0.00412	0.17349	0.014801	0.083923	-0.003052	0.093079	0.006104	0.046997	0.0354	-0.010223	-0.014343	0.007935	-0.000458	-0.34286	-0.11139	0.00412	-0.038605	0.023804	0.014954	-0.11841	-0.002899	-0.2594	-0.006866	-0.18448	0.024719	-0.007324	0.006714
41.386	-0.003967	0.17899	-0.023651	0.017548	0.011292	-0.005035	0.17303	0.022278	0.10727	-0.010071	0.10178	0.00351	0.054016	0.021973	-0.40207	-0.014038	0.015717	-0.019073	0.37079	-0.20798	0.023956	-0.025177	0.077972	0.044403	-0.040588	0.00824	-0.10757	-0.007172	-0.033722	-0.21194	-0.002441	0.004272
41.387	0.01236	0.18326	-0.025482	0.007935	0.007477	0.000153	0.17044	0.014801	0.12283	-0.007172	0.009766	0.001068	0.035858	0.053711	-0.30548	-0.012817	0.002136	-0.031586	0.068512	-0.10971	0.027618	-0.008392	-0.06073	0.09964	0.11673	-0.002594	-0.093689	-0.006561	0.47882	-0.16693	0.00061	0.014038
41.388	0.019073	0.15884	-0.02182	0.007172	0.010986	-0.012207	0.19409	0.023499	0.13992	-0.001526	-0.14023	0.004578	0.035706	0.070953	-0.067444	-0.010376	0.017395	-0.068207	0.20737	-0.09079	-0.019226	-0.003204	-0.12039	0.068665	0.092163	-0.007629	-0.16296	-0.006561	0.29877	-0.090027	-0.000916	-0.002289
41.389	0.010529	0.15533	-0.023499	0.017242	0.013428	0.014801	0.19836	0.010376	0.14008	0.004425	-0.20645	0.00946	0.022888	0.076904	0.15335	-0.008545	0.014038	-0.035553	-0.13199	-0.12543	-0.064392	-0.042267	-0.086823	-0.025787	0.017853	-0.002594	-0.2359	-0.005188	-0.39475	-0.012207	-0.004883	0.006409
41.39	0.013733	0.1326	-0.029602	0.021515	0.012054	0.007324	0.19959	0.010986	0.12848	-0.008545	0.01236	0.00351	0.050812	0.046234	0.19974	-0.00946	0.013275	0.0354	-0.014801	-0.086823	-0.14496	-0.018005	0.097198	-0.089417	-0.007629	0.001526	-0.34195	-0.008392	-0.22568	0.005493	-0.008545	-0.001373
41.391	0.012207	0.1796	-0.023041	0.004272	0.008545	0.011597	0.19562	0.010986	0.13641	-0.031433	0.12589	0.001068	0.11917	0.036163	-0.18494	-0.00412	0.019531	0.1265	-0.013733	-0.046844	-0.098572	-0.066071	0.13031	-0.001068	-0.057068	-0.002594	-0.31921	-0.010986	-0.76691	0.019226	-0.002441	0.003815
41.392	-0.003052	0.13931	-0.015564	-0.006561	0.009766	0.013123	0.19959	0.016327	0.13763	-0.043182	0.065613	0.004425	0.18585	0.060577	-0.24262	0.001678	0.04776	0.14358	0.21286	0.090637	-0.11169	-0.030518	0.1062	-0.097198	-0.11673	-0.00946	-0.15762	-0.00946	0.099335	0.1265	-0.002747	-0.006409
41.393	0.010071	0.15732	-0.030518	-0.004578	0.018158	0.033875	0.19653	0.011902	0.15564	-0.025024	-0.010376	0.011902	0.12054	0.045776	-0.35736	-0.000305	0.048828	0.18951	0.28793	0.20325	-0.19638	0.028839	0.13275	-0.068512	-0.12329	-0.015869	0.16617	-0.011902	-0.094757	0.23438	-0.003052	-0.005035
41.394	0.007477	0.17288	-0.040131	0.007477	0.013275	0.037231	0.1831	0.012817	0.15274	-0.012817	-0.057373	0.006256	0.06073	-0.026703	-0.2684	-0.005341	0.002136	0.15457	-0.099792	0.1413	-0.11292	0.094604	0.13138	-0.022125	-0.041199	-0.018005	0.19226	-0.005951	-0.067596	0.15656	-0.001373	-0.014648
41.395	0.002747	0.17944	-0.050812	0.006714	0.021057	0.032501	0.18417	0.014343	0.1506	0.015869	-0.026703	0.008392	0.039368	-0.082397	-0.073395	-0.00824	-0.004272	0.18738	0.14893	-0.029449	0.020905	0.054016	0.094299	0.028992	0.11276	0.003662	-0.009308	-0.008087	0.037231	0.048676	-0.008545	-0.002441
41.396	0.010834	0.18433	-0.047455	0.007477	-0.001526	0.013733	0.18738	0.005798	0.14282	0.041046	0.085907	0.006866	0.013428	-0.13001	0.10483	-0.009308	-0.065613	0.22476	0.48874	-0.051727	0.11917	0.006866	0.14816	0.051422	0.15381	0.005493	-0.04425	-0.006256	0.012512	-0.023193	-0.001831	-0.004425
41.397	0.016174	0.15396	-0.010529	0.004883	-0.018463	-0.010986	0.16892	0.014954	0.15656	0.014801	0.16983	0.005493	-0.021057	-0.11581	0.088196	-0.003815	-0.045319	0.15503	0.58411	-0.030975	0.13382	-0.029907	0.27817	-0.023041	0.097656	-0.002899	0.042267	-0.01358	0.15305	-0.049744	-0.009766	0.003815
41.398	0.014496	0.15778	-0.029755	0.001831	0.006104	0.005493	0.1828	0.007782	0.15503	-0.005341	0.21286	0.004272	-0.044556	-0.012817	0.073395	-0.018158	-0.028381	0.18356	0.51239	0.049591	0.088043	-0.004883	0.089569	-0.085449	0.11765	-0.007629	0.24414	-0.011749	0.20416	0.020599	-0.001373	-0.007629
41.399	0.016785	0.18936	-0.03891	0.008392	0.003815	0.023956	0.15289	0.014038	0.1683	-0.001678	0.14862	0.008087	-0.039673	-0.041656	0.14328	-0.005341	-0.043488	0.28946	0.23483	0.011902	0.065155	0.00885	-0.27268	0.10803	0.17624	0.003052	0.36743	-0.014038	0.18204	0.01297	-0.00351	-0.007172
41.4	0.015411	0.16144	-0.032806	-0.00473	-0.00061	0.016022	0.15198	0.011444	0.15106	-0.003357	-0.001984	0.007324	-0.051117	-0.036163	-0.1564	-0.003204	-0.045471	0.18249	0.35065	-0.060577	0.10544	-0.062256	0.007935	0.10651	0.034943	-0.006714	0.26611	-0.007019	-0.18768	0.042114	-0.002899	-0.003052
41.401	0.00824	0.14206	-0.040588	-0.002594	-0.018463	-0.001984	0.13825	0.00824	0.15182	-0.018005	-0.27725	0.005951	-0.040131	0.011749	-0.17792	-0.007477	-0.02655	0.13809	-0.10513	-0.086212	0.15595	-0.14114	0.23254	0.040436	-0.055084	-0.014191	0.15701	-0.008545	-0.44083	0.050201	-0.005341	0.002594
41.402	0.004578	0.13336	-0.023651	-0.00351	0.019226	0.00061	0.11719	0.005798	0.15808	-0.030823	-0.11551	0.006714	0.062866	-0.000153	0.068359	-0.001526	-0.008087	0.16632	0.27618	-0.08316	0.05188	-0.066223	0.13214	-0.007477	-0.17258	-0.016327	0.1004	-0.006561	-0.53635	0.073395	-0.00061	-0.000153
